<svg xmlns="http://www.w3.org/2000/svg" viewBox="0 0 151 197.54"><defs><style>.cls-1,.cls-2{fill:#63a343;}.cls-1{fill-rule:evenodd;}.cls-3{fill:#24b4d5;}.cls-4{fill:#61313e;}.cls-5{fill:#22b1b6;}.cls-6{fill:#ea5645;}.cls-7{fill:#d13431;}.cls-8{fill:#ffc23a;}.cls-9{fill:#179998;}.cls-10{fill:#f9a431;}.cls-11{fill:#4f823c;}.cls-12{fill:#16a2b9;}.cls-13{fill:#206787;}.cls-14{fill:#3ac2db;}
</style></defs><g id="Layer_2" data-name="Layer 2"><g id="Layer_1-2" data-name="Layer 1">
    <path class="cls-1" d="M83.61,94.13h6.86v9.58A3.44,3.44,0,0,1,87,107.14h0a3.44,3.44,0,0,1-3.43-3.43Z"/>
    <path class="cls-2" d="M68.83,88.42l.53.26A43.91,43.91,0,0,0,83,92.54c.7.08,1.41.13,2.12.18q2.11.14,4.23.06c.7,0,1.4-.07,2.1-.12a43.81,43.81,0,0,0,9.23-1.79q1-.32,2-.66c.65-.24,1.3-.49,1.94-.76,1-.4,1.91-.84,2.85-1.3a44.87,44.87,0,0,0,4.3-2.49c.37-.24.73-.48,1.09-.74.58-.4,1.14-.81,1.7-1.24l.83-.66c.54-.44,1.08-.9,1.6-1.37s1-1,1.55-1.46c1-1,2-2.06,2.88-3.17.46-.55.9-1.11,1.34-1.69s.84-1.17,1.26-1.78.79-1.22,1.17-1.85q1.13-1.89,2.09-3.94a43,43,0,0,0,1.69-4.12c.24-.69.47-1.39.67-2.08s.39-1.41.56-2.1.32-1.41.46-2.12a40.73,40.73,0,0,0,.58-4.24c0-.35.06-.7.08-1.06.07-1.06.1-2.12.09-3.17l0-1.06q0-1.05-.12-2.1a46,46,0,0,0-1-6.2c-.24-1-.51-2-.82-3-.2-.66-.42-1.33-.66-2s-.49-1.3-.76-1.94c-.51-1.25-1.09-2.47-1.72-3.66a45,45,0,0,0-2.8-4.59c-.4-.57-.82-1.13-1.25-1.69-.2-.25-.39-.5-.6-.75L120.9,21l-.32-.36c-.36-.41-.72-.82-1.1-1.21l0,0c-.4-.42-.81-.84-1.22-1.25l-.26-.25c-1-.94-2-1.84-3.09-2.69l-1-.79-.76-.55A44.14,44.14,0,0,0,107,10.24l-.71-.34-.54-.25,1.43-3.05.54.25.77.37a48,48,0,0,1,6.55,3.9l.81.59c.38.28.74.56,1.1.85q1.76,1.38,3.33,2.9l.28.27q.68.66,1.32,1.35h0c.41.43.8.87,1.19,1.31l.33.39c.28.31.54.64.8.95s.43.54.64.82c.47.59.91,1.2,1.35,1.82a49,49,0,0,1,3,4.94c.68,1.28,1.3,2.6,1.86,3.94.29.69.56,1.39.82,2.1s.49,1.41.71,2.13c.33,1.08.62,2.16.88,3.26a47,47,0,0,1,1,6.69c.06.75.1,1.5.13,2.26l0,1.13q0,1.71-.09,3.42c0,.38,0,.76-.09,1.15a44.79,44.79,0,0,1-.63,4.57c-.15.76-.31,1.51-.49,2.27s-.38,1.51-.6,2.27-.47,1.5-.73,2.24q-.79,2.25-1.82,4.45A46.08,46.08,0,0,1,128,73.43c-.4.68-.83,1.35-1.26,2s-.89,1.29-1.35,1.92-1,1.23-1.44,1.82a45.91,45.91,0,0,1-3.11,3.41c-.54.54-1.1,1.06-1.66,1.57s-1.15,1-1.73,1.49c-.3.23-.59.47-.9.7-.59.47-1.2.91-1.82,1.35l-1.18.79a47.44,47.44,0,0,1-4.63,2.67c-1,.51-2,1-3.07,1.41-.69.29-1.39.56-2.1.82s-1.41.49-2.13.71A47.22,47.22,0,0,1,91.7,96c-.76.07-1.51.11-2.27.14q-2.27.07-4.56-.06c-.76-.06-1.52-.12-2.28-.21a45.52,45.52,0,0,1-4.72-.78,47,47,0,0,1-9.94-3.37l-.53-.26Z"/><path class="cls-1" d="M110.81.32h0a3.45,3.45,0,0,1,1.65,4.57l-43,91.68a3.44,3.44,0,0,1-4.56,1.65h0a3.44,3.44,0,0,1-1.65-4.56L106.25,2A3.44,3.44,0,0,1,110.81.32Z"/><path class="cls-3" d="M120.45,25.35c.4.53.79,1.08,1.16,1.63s.73,1.13,1.08,1.71a39,39,0,0,1,1.93,3.62,39.42,39.42,0,0,1,1.54,3.78c.23.64.44,1.28.62,1.92s.37,1.29.52,1.94.3,1.29.42,1.94c.25,1.29.42,2.59.54,3.89q.09,1,.12,1.95c0,.65,0,1.3,0,2,0,.32,0,.64,0,1,0,.64-.06,1.28-.12,1.93a40.47,40.47,0,0,1-.89,5.7c-.22.94-.47,1.86-.75,2.78-.19.61-.39,1.22-.61,1.82s-.45,1.2-.69,1.79a40,40,0,0,1-4.17,7.58c-.36.52-.75,1-1.14,1.55-.79,1-1.64,2-2.53,3-.45.47-.91.94-1.38,1.39a40.58,40.58,0,0,1-23.22,10.9c-.65.07-1.3.13-2,.16a35.88,35.88,0,0,1-3.88.06c-.65,0-1.29-.06-1.93-.11a41.38,41.38,0,0,1-8.49-1.64c-.61-.2-1.22-.4-1.82-.62s-1.2-.44-1.79-.69c-.88-.37-1.76-.77-2.61-1.2a39.1,39.1,0,0,1-4-2.29l-1-.67c-.53-.37-1-.75-1.56-1.15-.26-.2-.51-.39-.76-.6-.5-.41-1-.83-1.48-1.27s-.95-.88-1.42-1.33c-.92-.92-1.81-1.89-2.65-2.91-.42-.51-.83-1-1.22-1.56s-.79-1.08-1.16-1.64-.73-1.12-1.08-1.7a36.64,36.64,0,0,1-1.92-3.62,39.6,39.6,0,0,1-1.56-3.78c-.22-.64-.43-1.28-.62-1.93s-.36-1.28-.51-1.93-.3-1.29-.42-1.94q-.36-1.95-.54-3.9c0-.32,0-.65-.07-1-.06-1-.09-2-.08-2.92,0-.32,0-.65,0-1,0-.64.07-1.29.12-1.93a40.61,40.61,0,0,1,.89-5.71c.22-.93.47-1.86.75-2.78.19-.61.39-1.21.61-1.82s.45-1.19.7-1.78c.47-1.15,1-2.27,1.58-3.37a39.54,39.54,0,0,1,2.58-4.21q.56-.79,1.14-1.56l.55-.69.68-.81.29-.34c.33-.37.66-.75,1-1.11h0c.37-.4.75-.78,1.14-1.15a2.5,2.5,0,0,1,.23-.23c.9-.87,1.85-1.69,2.84-2.48.31-.24.62-.49.94-.72s.47-.34.7-.51a39.68,39.68,0,0,1,5.58-3.32l.66-.32c.37-.18.75-.35,1.13-.51a40,40,0,0,1,11.38-3c.65-.07,1.3-.13,1.95-.17l.6,0c.45,0,.9,0,1.34,0,.65,0,1.3,0,1.94,0s1.3.06,1.94.11a40.67,40.67,0,0,1,7.6,1.38l.88.26c.61.19,1.22.4,1.82.61s1.2.45,1.79.7c.88.37,1.76.77,2.62,1.2a39.47,39.47,0,0,1,5,3c.53.37,1,.75,1.56,1.15.26.19.51.4.76.6.75.61,1.48,1.25,2.2,1.92l.7.68a38.6,38.6,0,0,1,2.65,2.91C119.65,24.3,120.06,24.82,120.45,25.35Z"/><rect class="cls-2" x="78.24" y="102.47" width="17.97" height="9.4"/><rect class="cls-2" x="56.96" y="111.86" width="60.79" height="6.63"/><path class="cls-4" d="M137.21,164.71c2,0,3.6,1.26,3.61,2.83l.11,26.58c0,1.57-1.6,2.85-3.58,2.86l-133.63.56c-2,0-3.6-1.26-3.61-2.83L0,168.13c0-1.57,1.6-2.85,3.58-2.86Z"/><path class="cls-2" d="M137.21,164.71c2,0,3.6,1.26,3.61,2.83l.11,26.58c0,1.57-1.6,2.85-3.58,2.86l-133.63.56c-2,0-3.6-1.26-3.61-2.83L0,168.13c0-1.57,1.6-2.85,3.58-2.86Z"/><path class="cls-5" d="M137.38,140.15c1.84,0,3.33.95,3.34,2.15l.08,20.23c0,1.2-1.48,2.17-3.31,2.18l-123.4.51c-1.83,0-3.32-.95-3.33-2.15l-.08-20.23c0-1.2,1.47-2.17,3.31-2.18Z"/><path class="cls-6" d="M148,115.54c1.61,0,2.92.95,2.92,2.15l.09,20.23c0,1.2-1.3,2.18-2.91,2.18l-108.32.45c-1.61,0-2.92-1-2.92-2.15l-.09-20.23c0-1.2,1.3-2.17,2.91-2.18Z"/><path class="cls-7" d="M36.85,139.08c0,.82,1.31,1.48,2.92,1.47l108.32-.45c1.61,0,2.91-.68,2.91-1.5v-3L36.84,136Z"/><path class="cls-8" d="M60.08,119.29c4.56,0,8.27,3.32,8.29,7.45s-3.67,7.5-8.22,7.51-8.27-3.31-8.29-7.44S55.53,119.31,60.08,119.29Z"/><rect class="cls-7" x="45.68" y="135.88" width="55.43" height="4.54" transform="translate(-0.56 0.3) rotate(-0.23)"/><path class="cls-9" d="M10.56,162.72c0,1.39,1.5,2.51,3.33,2.5l123.59-.51c1.84,0,3.32-1.14,3.32-2.53l0-5.17-130.23.54Z"/><rect class="cls-8" x="39.82" y="140.49" width="27.56" height="24.57" transform="translate(-0.64 0.23) rotate(-0.24)"/><rect class="cls-8" x="97.24" y="140.31" width="3.86" height="24.56" transform="translate(-0.66 0.43) rotate(-0.25)"/><rect class="cls-10" x="39.85" y="157.38" width="27.56" height="7.68" transform="translate(-0.74 0.25) rotate(-0.26)"/><rect class="cls-10" x="97.28" y="157.19" width="3.86" height="7.68" transform="translate(-0.78 0.48) rotate(-0.28)"/><path class="cls-11" d="M.34,194.71c0,1.57,1.63,2.84,3.61,2.83L137.58,197c2,0,3.59-1.29,3.59-2.85l0-5.84L.32,188.88Z"/><rect class="cls-6" x="112.21" y="164.81" width="5.25" height="32.27" transform="translate(-0.76 0.48) rotate(-0.24)"/><rect class="cls-6" x="120.45" y="164.77" width="5.25" height="32.27" transform="translate(-0.76 0.52) rotate(-0.24)"/><rect class="cls-7" x="112.26" y="188.4" width="5.09" height="8.68" transform="translate(-0.79 0.47) rotate(-0.23)"/><rect class="cls-7" x="120.5" y="188.36" width="5.25" height="8.68" transform="translate(-0.79 0.5) rotate(-0.23)"/><path class="cls-12" d="M128.35,47.73q0-1-.12-1.95a36.74,36.74,0,0,0-.54-3.89c-.12-.65-.26-1.3-.42-1.94s-.32-1.3-.52-1.94-.39-1.28-.61-1.92c-.45-1.27-1-2.54-1.55-3.78a39,39,0,0,0-1.93-3.62q-.51-.87-1.08-1.71c-.37-.55-.75-1.1-1.15-1.63s-.81-1.05-1.23-1.56a38.6,38.6,0,0,0-2.65-2.91l-.7-.68c-.71-.67-1.44-1.31-2.2-1.92l-.75-.6L112,17c.12.25.26.47.38.73A37.08,37.08,0,0,1,114,21.55c.23.64.43,1.28.62,1.92s.37,1.29.52,1.94.29,1.29.42,1.94c.24,1.29.42,2.59.54,3.89q.07,1,.12,1.95c0,.65,0,1.3,0,2,0,.32,0,.64,0,1,0,.64-.07,1.28-.12,1.93a40.47,40.47,0,0,1-.89,5.7c-.22.94-.47,1.86-.75,2.78-.19.61-.39,1.22-.61,1.82s-.45,1.2-.69,1.79A40.56,40.56,0,0,1,109,57.71c-.36.52-.75,1-1.14,1.55-.79,1-1.64,2-2.53,3-.45.47-.91.93-1.38,1.39A40.21,40.21,0,0,1,93.19,71a39.63,39.63,0,0,1-8.48,2.87,37.45,37.45,0,0,1-4,.67c-.65.07-1.3.13-2,.17a35.88,35.88,0,0,1-3.88.06c-.65,0-1.29-.06-1.93-.12A40,40,0,0,1,64.43,73c-.61-.19-1.22-.39-1.82-.61s-1.2-.45-1.79-.69c-.88-.37-1.76-.77-2.61-1.2a41.09,41.09,0,0,1-4-2.29l-1-.67-.7-.51c.49,1,1,2,1.54,2.89.35.58.71,1.15,1.08,1.7s.76,1.11,1.16,1.64.8,1,1.23,1.56a36.58,36.58,0,0,0,2.65,2.91c.46.45.93.9,1.41,1.33s1,.86,1.48,1.27c.25.21.51.4.76.6.51.4,1,.78,1.56,1.15.33.23.67.45,1,.67A37.89,37.89,0,0,0,70.38,85c.86.43,1.73.83,2.62,1.2.59.25,1.18.48,1.79.69s1.2.42,1.81.62a41.38,41.38,0,0,0,8.49,1.64c.64,0,1.29.09,1.93.11a36.11,36.11,0,0,0,3.89-.06c.65,0,1.3-.09,2-.16a40.85,40.85,0,0,0,4-.68,40.1,40.1,0,0,0,19.2-10.22c.47-.45.93-.92,1.37-1.39.89-1,1.74-1.94,2.53-3,.39-.51.78-1,1.14-1.55a40,40,0,0,0,4.17-7.58c.24-.59.47-1.19.69-1.79s.42-1.21.61-1.82c.28-.92.53-1.84.75-2.78a40.47,40.47,0,0,0,.89-5.7c.06-.65.1-1.29.12-1.93,0-.33,0-.65,0-1Q128.39,48.71,128.35,47.73Z"/><rect class="cls-11" x="78.24" y="102.47" width="17.97" height="3.71"/><path class="cls-13" d="M107.84,39.76c0,.26,0,.51-.41.69s-1,.8-1.17.72-.44-.24-.62-.28-.67,0-.65-.06.25-.2.25-.32,0-.35-.19-.35-.7-.14-.38-.18.59-.14.51-.24-.35,0-.45,0-.32.06-.16-.24a1.75,1.75,0,0,1,.4-.55.33.33,0,0,1,.39.21c0,.2.28.64.32.36s.12-.45.2-.3,0,.28.14,0,.28-.25.43-.15.32.24.32,0,.12-.43.26-.33a2.48,2.48,0,0,1,.46.31A4.48,4.48,0,0,1,107.84,39.76Z"/><path class="cls-13" d="M90.82,62.78a1.68,1.68,0,0,0,1.39.31c.79-.15,1.74.92,2.22,1s1.9.63,2.1,1.15.28,1,1,1.23,2.3.55,2.7.71,1.86.68,1.07,1.87a5.26,5.26,0,0,0-1.23,2.5c-.24,1.15-.2,1.59-1.59,2.18s-1.07,1.15-1.55,1.9-1,1.67-1.43,1.87-.59,1.11-1,1.39-.91,0-1.19.59a11.83,11.83,0,0,1-1.15,2c-.2.35-.56.39-.36.83s.28.64-.12,1.11-.55,1.87-.16,2.18,1.19.92.44,1-2.78-.48-2.85-2a27.85,27.85,0,0,1,.75-6.78c.47-1.59,1.5-5.56,0-6.43s-2.06-2.86-2.34-3.1-.24-1-.24-1.23.08-1,.4-1.19a1.55,1.55,0,0,0,.63-1.35c-.08-.55.51-1,.71-1.23s.56-.63,1-.63A2.49,2.49,0,0,1,90.82,62.78Z"/><path class="cls-13" d="M93.9,84.63a.38.38,0,0,0-.42,0,.38.38,0,0,0-.15.39A.88.88,0,0,0,94.44,85a.29.29,0,0,0,.11-.27.26.26,0,0,0-.29-.16,1.29,1.29,0,0,1-.34,0Z"/><path class="cls-13" d="M89.71,60a3.31,3.31,0,0,1,1.45.4s.06,0,0,.07,0,0-.06,0a5.14,5.14,0,0,1-1.79.11c0-.08.07-.16.16-.17a2.35,2.35,0,0,0,.26,0c.09,0,.17-.12.12-.19a.51.51,0,0,1-.21,0,.16.16,0,0,1-.11-.16c0-.07.11-.12.16-.08Z"/><path class="cls-13" d="M91.85,60.46a.67.67,0,0,0-.5,0,.12.12,0,0,0-.06.06s0,.08.1.1a.56.56,0,0,0,.4,0c.12-.06.18-.27,0-.33Z"/><path class="cls-13" d="M88.52,60.12a.26.26,0,0,1-.18-.07c-.06-.06-.06-.15-.11-.23s-.34-.12-.52-.15a2,2,0,0,1-.52-.24.73.73,0,0,0-.55-.1c-.12.05-.29.14-.36,0s0-.19.13-.22a1.37,1.37,0,0,0,.28,0c.14-.05.25-.22.4-.22s.28.19.45.24a1,1,0,0,0,.3,0,1.24,1.24,0,0,1,.74.3l.74.5a.12.12,0,0,1,.05.05.13.13,0,0,1-.05.16.33.33,0,0,1-.17,0A2.67,2.67,0,0,1,88.52,60.12Z"/><path class="cls-13" d="M88.1,60.57a.3.3,0,0,1,.32-.09.29.29,0,0,1,.21.26.5.5,0,0,1-.53-.12Z"/><path class="cls-13" d="M88.53,63.78c0-.36-.79-.57-1-.41-.47.43-1.27-.32-1.07-.83s.28-1.15-.35-1.15-1.23.08-1.07-.4,1-1.39.47-1.39a1.35,1.35,0,0,0-1.15.48c-.48.43-1.79.83-2-.32s-.2-2.5.23-2.58.84-.44,1.51-.28.56-.19.84-.27,1.31-.32,1.58.23.44,1.55.68,1.55.67-.71.08-1.63S88.88,55,89,54.6s-.08-.83.36-1.39,1.27-.75,1.31-1,.59-1.19.87-1.19.48.76.72.59,1.86-1.11,1.67-1.3-.64-.08-1-.16-.47-.56-.39-.84.35-.71.63-.71a1.72,1.72,0,0,0,.91-.24c.2-.16,1.23-.59,1-1.07s-.16-.64-.64-.95a6.85,6.85,0,0,1-1.75-2.42c-.27-.8-.55-1.19-.67-.56s-.67,1.15-1,.4-.52-1.31-1-1.55-.44-.4-1-.47-1-.48-1,.19a4.42,4.42,0,0,1,0,1.83c-.2.28.76,1.07.48,1.55s-1,.75-.95,1.11.71,1.58-.12,1.31-.4-1.31-.6-1.55-1.27-.16-1.59-.52-1.27-1-1.74-1.35-.72-1.15,0-2.22,2.06-2.06,2.18-2.62,1.55-.67,1.47-1.11,0-1.59-.16-1.71-.84-1-1.11-.19-.44,1.9-.76,1.43-.35-1.63-.83-1.83a2.14,2.14,0,0,1-.91-1.67c0-.55.52-.91.67-1.43s.44-.83-.27-1-.92.24-1,.95a8,8,0,0,1-.16,1.79c-.2.56.48,1.9.24,2.34s-.32.8-1.23.68-1.94-1-2.46-.6-2.14,1.35-2.38.68a2.5,2.5,0,0,0-1.79-1.55c-.75-.08-1.46.12-1.7-.12s-.28-.83-.76-.56-1.5,1.31-1.94,1.31-1.59-.71-3-1-2.53-1.47-3.69-.75-1.59,1.23-2.34,1.62,0,1.12.28,1.51.16.6-.4.84c-.18.07-.51-.34-.8,0s0,.88.45,1c.63.16,2.49.32,1.62.75s-1.43,1.07-1.35,1.71.28,1.07.8,1,.51.44.87.56,1.31.12.75.67-3,2-2.87,2.16,4-2.12,4.18-2.48a3.25,3.25,0,0,1,1.39-1.19,2.32,2.32,0,0,1,1.83-.12c1,.32,2.26,1.83,2.9,2.26a9.43,9.43,0,0,1,2.34,3.3,16,16,0,0,1,.51,3.53,6.59,6.59,0,0,0,1.55,3.26c.6.43,2.42,3.73,2.7,3.73s.12-.64-.6-1.67-1.19-2.18-.08-.72a23.25,23.25,0,0,1,2.15,2.78,5.45,5.45,0,0,0,2.81,2.07c.92.08,2.86.55,2.94.87a5,5,0,0,0,1.75,1.51c.32,0,.33-.39.52-.41s.36.38.42.47S88.53,63.78,88.53,63.78Z"/><path class="cls-13" d="M94.17,48.71a1.48,1.48,0,0,0-.31.79.44.44,0,0,0,0,.2c.1.19.38.13.6.15a1.81,1.81,0,0,1,.72.3.78.78,0,0,0,.75.08,1.78,1.78,0,0,0-.22-.66c-.06-.13-.13-.26-.19-.4a1.6,1.6,0,0,0-.59-.74c-.28-.15-.72,0-.78.27Z"/><path class="cls-13" d="M92,29.72c1.19-.12,1.49-1,2.38,1.43s1.61,3,1.61,4.11-.78,2.79-.42,3.86,2.2,4.59,2.86,4.23,1-2.8,1.66-3.39,1.25-2,2.45-2.26,2.73-.72,2.85-2.56.72-5.72.3-8.46c-.3-1.95,2-3.87,2.5-4.7s.24-2.08-.65-1.73-1.43,1.26-1.67.9-.24-1.61-.71-1.49-2.92.95-2.45.36,3.16-.72,2-1.67-.78-2.74-2.92-2.32S98.52,18,97,18.71a14.79,14.79,0,0,0-3.69,2c-.78.78-1.61,1.67-1.49,2.5s1,1.31-.3,2S89.11,26.51,90.07,27s.89.95.77,1.31a1.07,1.07,0,0,0,.48,1.25A1.12,1.12,0,0,0,92,29.72Z"/><path class="cls-13" d="M85.18,32.28c-.29.54-.83,2.2-.47,2.62A2.1,2.1,0,0,0,86.37,36c1,.06,1.55-.18,2,.18s2.26,1.67,1.43,2.56-2.54,2.24-1.19,2c1.72-.35,2.56,1.67,3.09,1.49s.72-1,.24-1.84-.42-1.79.06-1.25,2,.59.59-.9S91.49,36,90.9,35.49s-1.67-1.48-2.14-2a4,4,0,0,0-1.13-.89c-.9-.6-1.49-.48-1.55-.18s-.36-.06-.54-.12A1.29,1.29,0,0,0,85.18,32.28Z"/><path class="cls-13" d="M91.08,22.34a24.49,24.49,0,0,0,1.84-2.44c.36-.72.48-1.61-.83-1.91s-3.08-.58-3.81-.23c-.89.41-4,2-4,2.44a2.94,2.94,0,0,0,.3,1.54c.3.48.54,1.19,1.61,1s1.9.3.65.54-2.74-.3-2.92-1-1-.95-1.13-.06a4.79,4.79,0,0,0,.06,2.62c.36.65.3,1.43,1.19,1.67s1.55.65,1.25,1.13-.71,1.36-1.31,1.25-1.42-.9-1.42-.48.23.54.83,1.13-.12,1.43.41,1.67,3.7.77,3.76.36S88.1,29.9,87,30s-2.2.54-2.26,0S85,28.77,85.78,29s2.08.24,2.14-.18-.18-1.37.3-1.73,1.43-1.67,1.19-2.2S91.08,22.34,91.08,22.34Z"/><path class="cls-13" d="M74.45,31.65a.51.51,0,0,0-.49.44c-.1.59-.31,1.62-.09,2s.6,1.37,1.07.78.42-1.37.84-1.55,2-.83.71-1.31A5.48,5.48,0,0,0,74.45,31.65Z"/><path class="cls-13" d="M76,33.41c-.24.42-.3,1-.06,1.07s.06.42.12.66.53.17,1,.17,1.13.24.36.42-1.31.24-.84.66.66,1.37,1.43,1.07a10.11,10.11,0,0,1,2-.72c.35,0,1.48.42,1.07-.47s-.84-1-1-1.67.12-2.8-.53-2.2-.78,1.43-1.25,1.07-1.13-.89-1.55-.65A3.75,3.75,0,0,0,76,33.41Z"/><path class="cls-13" d="M76,27.76c-.72.41-1.61,1.49-1.13,1.72s1.37-.43,1.66-.77C77.92,27,76,27.76,76,27.76Z"/><path class="cls-13" d="M76.61,29.18c-.35.78-1,1.55-.24,1.61s.9.3,1,.54.71-.06,1.31-.24S79.83,31,80,30.37s-.12-.89-.54-1.36-.83-.12-1.19.35-1,.12-1.07-.11S76.61,29.18,76.61,29.18Z"/><path class="cls-13" d="M77.51,26a.18.18,0,0,0,0,.21.81.81,0,0,0,.64.26.61.61,0,0,0,.53-.14c.15-.19,0-.49-.24-.58a1.24,1.24,0,0,0-.71,0Z"/><path class="cls-13" d="M88.67,38.41a.2.2,0,0,0,.21,0,.7.7,0,0,0,.3-.55.5.5,0,0,0-.13-.47.43.43,0,0,0-.58.18.88.88,0,0,0,0,.62Z"/><path class="cls-13" d="M85.88,39.44a.2.2,0,0,0-.15.17c-.09.48-.47.86-.25,1.24s.89.71,1,.42.48-.18.66-.18.53-.06.12-.66c-.29-.41-.58-.14-1-.92a.26.26,0,0,0-.31-.09Z"/><path class="cls-13" d="M81.27,32.36a.21.21,0,0,0-.11.28c.09.24.18.37-.14.53s-.24.2.16.8.59,1.07.91.67.79-1.07.44-1.39.15-1.35-.4-1.39C81.76,31.84,81.48,32.26,81.27,32.36Z"/><path class="cls-13" d="M79.67,24.92c.16.4.51.48.51.79s-.55.56.2.87,1.23,1,1.31.64a2,2,0,0,0-.12-1.35,3.36,3.36,0,0,0-1-1C79.59,24.4,79.67,24.92,79.67,24.92Z"/><path class="cls-13" d="M77.52,27c-.19.08-.12.83.28.83s1.17-.81.76-1A1.21,1.21,0,0,0,77.52,27Z"/><path class="cls-13" d="M80.3,29c.2.39.12,1.3.48,1.3s.4.12.6.36.87.4.87-.51-.2-1.39-.56-1.27-1,.4-1,.27S80.3,29,80.3,29Z"/><path class="cls-13" d="M82,25.83c.12.28.08,1.23.56,1.23A.56.56,0,0,0,82.68,26C82.13,25.63,82,25.83,82,25.83Z"/><path class="cls-13" d="M82.92,30.2c-.35.35-.44.75-.16.91s.84.59.64-.32S82.92,30.2,82.92,30.2Z"/><path class="cls-14" d="M115.41,78.94C86.54,76.72,69.87,68.12,61,61.29c-9.67-7.41-12.54-14.41-12.57-14.48l.4-.16c0,.07,2.87,7,12.46,14.32,8.86,6.79,25.46,15.33,54.2,17.53Z"/><path class="cls-14" d="M67.86,84.62C62,66.54,62.56,50.77,69.48,37.74,80,18,101.72,11.53,101.94,11.46l.12.42c-.22.06-21.82,6.51-32.2,26.07C63,50.86,62.47,66.52,68.27,84.49Z"/><path class="cls-14" d="M73.2,87.49l-.15-.4c17.61-6.43,29.5-16.44,35.36-29.75,9-20.59.3-42.2.21-42.41l.4-.17c.09.22,8.91,22-.22,42.75C102.9,70.94,90.92,81,73.2,87.49Z"/><path class="cls-14" d="M128.37,50.88c-28.48-2.17-44.93-10.71-53.71-17.5C65.13,26,62.31,19,62.28,19l.4-.15c0,.07,2.82,6.94,12.28,14.24,8.73,6.74,25.09,15.23,53.44,17.39Z"/><rect class="cls-6" x="12.43" y="165.22" width="37.01" height="32.2"/><rect class="cls-7" x="12.43" y="188.76" width="37.01" height="8.66"/><rect class="cls-8" x="23.95" y="165.22" width="16.4" height="32.2"/><rect class="cls-10" x="23.95" y="188.76" width="16.45" height="8.66"/></g></g></svg>